<?xml version="1.0" standalone="no"?>
<!DOCTYPE svg PUBLIC "-//W3C//DTD SVG 20010904//EN"
 "http://www.w3.org/TR/2001/REC-SVG-20010904/DTD/svg10.dtd">
<svg version="1.0" xmlns="http://www.w3.org/2000/svg"
 width="195.000000pt" height="195.000000pt" viewBox="0 0 195.000000 195.000000"
 preserveAspectRatio="xMidYMid meet">

<g transform="translate(0.000000,195.000000) scale(0.100000,-0.100000)"
fill="#000000" stroke="none">
<path d="M683 1186 l-28 -24 -3 -186 -3 -186 30 -30 c37 -37 79 -39 118 -6
l28 24 0 192 0 192 -28 24 c-36 31 -78 31 -114 0z m75 -214 c2 -152 1 -173
-14 -179 -28 -11 -34 18 -34 174 0 163 4 186 29 181 14 -3 16 -26 19 -176z"/>
<path d="M154 1184 c3 -9 6 -47 6 -85 0 -55 3 -69 15 -69 12 0 15 15 15 75 0
43 4 75 10 75 6 0 10 5 10 10 0 6 -14 10 -31 10 -24 0 -30 -3 -25 -16z"/>
<path d="M230 1115 c0 -50 4 -85 10 -85 6 0 10 15 10 34 0 19 5 38 10 41 6 4
10 -10 10 -34 0 -30 4 -41 15 -41 12 0 15 16 15 85 0 69 -3 85 -15 85 -10 0
-15 -11 -15 -35 0 -19 -4 -35 -10 -35 -5 0 -10 16 -10 35 0 19 -4 35 -10 35
-6 0 -10 -35 -10 -85z"/>
<path d="M320 1115 c0 -84 0 -85 25 -85 14 0 25 5 25 10 0 6 -7 10 -15 10 -9
0 -15 9 -15 25 0 14 7 28 15 31 8 4 15 10 15 15 0 5 -7 9 -15 9 -9 0 -15 9
-15 25 0 16 6 25 15 25 8 0 15 5 15 10 0 6 -11 10 -25 10 -25 0 -25 -1 -25
-85z"/>
<path d="M430 970 l0 -230 70 0 c100 0 110 12 110 130 0 78 -3 91 -19 102 -20
12 -20 12 0 26 28 20 28 138 -2 176 -19 24 -27 26 -90 26 l-69 0 0 -230z m108
168 c7 -7 12 -33 12 -58 0 -46 -13 -70 -37 -70 -9 0 -13 19 -13 70 0 71 10 86
38 58z m0 -190 c7 -7 12 -39 12 -73 0 -60 -11 -85 -37 -85 -10 0 -13 22 -13
85 0 86 8 103 38 73z"/>
<path d="M860 970 l0 -230 65 0 c63 0 65 1 65 25 0 21 -5 25 -30 25 l-30 0 0
205 0 205 -35 0 -35 0 0 -230z"/>
<path d="M1020 970 l0 -230 69 0 c64 0 71 2 91 27 20 26 21 36 18 211 -3 179
-4 184 -27 203 -17 14 -39 19 -87 19 l-64 0 0 -230z m110 161 c5 -11 10 -83
10 -161 0 -141 -8 -180 -35 -180 -13 0 -15 29 -15 180 0 151 2 180 15 180 8 0
19 -9 25 -19z"/>
<path d="M1260 1175 c0 -8 7 -15 15 -15 13 0 15 -22 15 -135 l0 -135 25 0 25
0 0 135 c0 113 2 135 15 135 8 0 15 7 15 15 0 12 -13 15 -55 15 -42 0 -55 -3
-55 -15z"/>
<path d="M1417 1133 c8 -32 17 -100 20 -150 5 -82 8 -93 24 -93 17 0 19 8 19
78 0 42 9 109 19 150 l19 72 -24 0 c-21 0 -24 -4 -24 -39 0 -55 -18 -61 -22
-9 -2 35 -7 44 -25 46 -21 3 -21 3 -6 -55z"/>
<path d="M1550 1040 l0 -150 25 0 c23 0 25 4 25 43 0 38 4 44 33 57 32 15 32
16 35 91 3 93 -8 109 -74 109 l-44 0 0 -150z m75 50 c0 -42 -4 -65 -12 -67
-10 -4 -13 14 -13 67 0 53 3 71 13 68 8 -3 12 -26 12 -68z"/>
<path d="M1710 1040 l0 -150 45 0 c38 0 45 3 45 20 0 15 -7 20 -25 20 -23 0
-25 3 -25 50 0 47 2 50 25 50 16 0 25 6 25 15 0 9 -9 15 -25 15 -23 0 -25 3
-25 50 0 47 2 50 25 50 16 0 25 6 25 15 0 11 -12 15 -45 15 l-45 0 0 -150z"/>
</g>
</svg>
